<svg width="28" height="30" viewBox="0 0 28 30" fill="none" xmlns="http://www.w3.org/2000/svg">
<path d="M14.113 24.3066C16.574 24.2604 19.7839 24.179 19.7839 20.7768C19.7839 17.1972 16.8625 17.157 15.3633 17.1148H8.9882V24.3066H14.113ZM25.6251 16.9486C26.667 18.0807 27.2526 19.7154 27.2526 21.4066C27.2526 23.7185 26.0429 26.953 22.3721 28.5928C20.1621 29.5627 17.7817 29.6878 14.404 29.6878H1.98037V11.694L14.5303 11.7281C16.1978 11.689 18.9093 11.6076 18.9093 8.5353C18.9093 5.67495 16.4498 5.55041 15.0307 5.55041L5.47871 5.52449L0 0H13.3652C16.4498 0 19.2454 0.125558 21.0402 0.716233C24.6648 1.89047 26.1255 4.79606 26.1255 7.6132C26.1255 9.2063 25.7067 10.1787 25.5835 10.4659C24.2491 13.4961 21.4104 14.0852 19.8305 14.4207C21.6233 14.7155 23.9966 15.0983 25.6251 16.9486Z" fill="white"/>
</svg>
