<svg width="471" height="590" viewBox="0 0 471 590" fill="none" xmlns="http://www.w3.org/2000/svg">
<g opacity="0.7">
<path d="M381 366V224C381 209.088 393.088 197 408 197H544C558.912 197 571 209.088 571 224V295V332.5V361.25V367C571 381.359 559.359 393 545 393H524H476H408C393.088 393 381 380.912 381 366Z" stroke="#F4F4F4" stroke-width="2"/>
<path d="M381 562V420C381 405.088 393.088 393 408 393H544C558.912 393 571 405.088 571 420V491V528.5V547.196C571 553.463 568.82 559.536 564.833 564.371L552.628 579.175C547.499 585.397 539.858 589 531.795 589H524H476H408C393.088 589 381 576.912 381 562Z" stroke="#F4F4F4" stroke-width="2"/>
<path d="M191 366V224C191 209.088 203.088 197 218 197H354C368.912 197 381 209.088 381 224V295V332.5V361.25V367C381 381.359 369.359 393 355 393H334H286H218C203.088 393 191 380.912 191 366Z" stroke="#F4F4F4" stroke-width="2"/>
<path d="M191 562V420C191 405.088 203.088 393 218 393H354C368.912 393 381 405.088 381 420V491V528.5V547.196C381 553.463 378.82 559.536 374.833 564.371L362.628 579.175C357.499 585.397 349.858 589 341.795 589H334H286H218C203.088 589 191 576.912 191 562Z" stroke="#F4F4F4" stroke-width="2"/>
<path d="M1 366V224C1 209.088 13.0883 197 28 197H164C178.912 197 191 209.088 191 224V295V332.5V361.25V367C191 381.359 179.359 393 165 393H144H96H28C13.0883 393 1 380.912 1 366Z" stroke="#F4F4F4" stroke-width="2"/>
<path d="M1 562V420C1 405.088 13.0883 393 28 393H164C178.912 393 191 405.088 191 420V491V528.5V547.196C191 553.463 188.82 559.536 184.833 564.371L172.628 579.175C167.499 585.397 159.858 589 151.795 589H144H96H28C13.0883 589 1 576.912 1 562Z" stroke="#F4F4F4" stroke-width="2"/>
<path d="M381 28V170C381 184.912 368.912 197 354 197H218C203.088 197 191 184.912 191 170V99V61.5V42.8039C191 36.5366 193.18 30.4644 197.167 25.6286L209.372 10.8248C214.501 4.60348 222.142 1 230.205 1H238H286H354C368.912 1 381 13.0883 381 28Z" stroke="#F4F4F4" stroke-width="2"/>
<path d="M571 28V170C571 184.912 558.912 197 544 197H408C393.088 197 381 184.912 381 170V99V61.5V42.8039C381 36.5366 383.18 30.4644 387.167 25.6286L399.372 10.8248C404.501 4.60348 412.142 1 420.205 1H428H476H544C558.912 1 571 13.0883 571 28Z" stroke="#F4F4F4" stroke-width="2"/>
<path d="M191 28V170C191 184.912 178.912 197 164 197H28C13.0883 197 1 184.912 1 170V99V61.5V42.8039C1 36.5366 3.1803 30.4644 7.16707 25.6286L19.3718 10.8248C24.5008 4.60348 32.1418 1 40.2047 1H48H96H164C178.912 1 191 13.0883 191 28Z" stroke="#F4F4F4" stroke-width="2"/>
</g>
</svg>
